{
	"asset":{
		"generator":"Khronos glTF Blender I/O v4.2.60",
		"version":"2.0"
	},
	"extensionsUsed":[
		"KHR_materials_specular"
	],
	"scene":0,
	"scenes":[
		{
			"name":"Scene",
			"nodes":[
				0,
				1,
				2
			]
		}
	],
	"nodes":[
		{
			"mesh":0,
			"name":"Body",
			"rotation":[
				0,
				0.7071066498756409,
				0,
				0.70710688829422
			],
			"translation":[
				0.00044787750812247396,
				0.19786743819713593,
				0.11404949426651001
			]
		},
		{
			"mesh":1,
			"name":"FrontWheels",
			"rotation":[
				-0.1349223554134369,
				-0.1349223554134369,
				-0.6941152811050415,
				0.6941152215003967
			],
			"translation":[
				0.0006815195083618164,
				0.11095721274614334,
				0.49679675698280334
			]
		},
		{
			"mesh":2,
			"name":"RearWheels",
			"rotation":[
				-0.1349223554134369,
				-0.1349223554134369,
				-0.6941152811050415,
				0.6941152215003967
			],
			"translation":[
				0.0006816685199737549,
				0.11095722764730453,
				-0.39544662833213806
			]
		}
	],
	"materials":[
		{
			"doubleSided":true,
			"emissiveFactor":[
				1,
				1,
				1
			],
			"emissiveTexture":{
				"index":0
			},
			"extensions":{
				"KHR_materials_specular":{
					"specularFactor":0
				}
			},
			"name":"Material.002",
			"pbrMetallicRoughness":{
				"baseColorTexture":{
					"index":1
				},
				"metallicFactor":0
			}
		}
	],
	"meshes":[
		{
			"name":"Cube.004",
			"primitives":[
				{
					"attributes":{
						"POSITION":0,
						"NORMAL":1,
						"TEXCOORD_0":2
					},
					"indices":3,
					"material":0
				}
			]
		},
		{
			"name":"Cylinder.003",
			"primitives":[
				{
					"attributes":{
						"POSITION":4,
						"NORMAL":5,
						"TEXCOORD_0":6
					},
					"indices":7,
					"material":0
				}
			]
		},
		{
			"name":"Cylinder.004",
			"primitives":[
				{
					"attributes":{
						"POSITION":8,
						"NORMAL":9,
						"TEXCOORD_0":10
					},
					"indices":7,
					"material":0
				}
			]
		}
	],
	"textures":[
		{
			"sampler":0,
			"source":0
		},
		{
			"sampler":0,
			"source":0
		}
	],
	"images":[
		{
			"mimeType":"image/png",
			"name":"fmesh_Material.001_BasssseColor_001df",
			"uri":"textures/fmesh_Material_001_BasssseColor_001df.png"
		}
	],
	"accessors":[
		{
			"bufferView":0,
			"componentType":5126,
			"count":2045,
			"max":[
				0.8761772513389587,
				0.2793223261833191,
				0.3469870090484619
			],
			"min":[
				-0.686285138130188,
				-0.11996835470199585,
				-0.34651944041252136
			],
			"type":"VEC3"
		},
		{
			"bufferView":1,
			"componentType":5126,
			"count":2045,
			"type":"VEC3"
		},
		{
			"bufferView":2,
			"componentType":5126,
			"count":2045,
			"type":"VEC2"
		},
		{
			"bufferView":3,
			"componentType":5123,
			"count":8751,
			"type":"SCALAR"
		},
		{
			"bufferView":4,
			"componentType":5126,
			"count":332,
			"max":[
				0.10924182832241058,
				0.31939077377319336,
				0.10924188047647476
			],
			"min":[
				-0.10924182832241058,
				-0.3193908929824829,
				-0.10924189537763596
			],
			"type":"VEC3"
		},
		{
			"bufferView":5,
			"componentType":5126,
			"count":332,
			"type":"VEC3"
		},
		{
			"bufferView":6,
			"componentType":5126,
			"count":332,
			"type":"VEC2"
		},
		{
			"bufferView":7,
			"componentType":5123,
			"count":1512,
			"type":"SCALAR"
		},
		{
			"bufferView":8,
			"componentType":5126,
			"count":332,
			"max":[
				0.10924181342124939,
				0.3193906247615814,
				0.10924187302589417
			],
			"min":[
				-0.10924181342124939,
				-0.3193906843662262,
				-0.10924188792705536
			],
			"type":"VEC3"
		},
		{
			"bufferView":9,
			"componentType":5126,
			"count":332,
			"type":"VEC3"
		},
		{
			"bufferView":10,
			"componentType":5126,
			"count":332,
			"type":"VEC2"
		}
	],
	"bufferViews":[
		{
			"buffer":0,
			"byteLength":24540,
			"byteOffset":0,
			"target":34962
		},
		{
			"buffer":0,
			"byteLength":24540,
			"byteOffset":24540,
			"target":34962
		},
		{
			"buffer":0,
			"byteLength":16360,
			"byteOffset":49080,
			"target":34962
		},
		{
			"buffer":0,
			"byteLength":17502,
			"byteOffset":65440,
			"target":34963
		},
		{
			"buffer":0,
			"byteLength":3984,
			"byteOffset":82944,
			"target":34962
		},
		{
			"buffer":0,
			"byteLength":3984,
			"byteOffset":86928,
			"target":34962
		},
		{
			"buffer":0,
			"byteLength":2656,
			"byteOffset":90912,
			"target":34962
		},
		{
			"buffer":0,
			"byteLength":3024,
			"byteOffset":93568,
			"target":34963
		},
		{
			"buffer":0,
			"byteLength":3984,
			"byteOffset":96592,
			"target":34962
		},
		{
			"buffer":0,
			"byteLength":3984,
			"byteOffset":100576,
			"target":34962
		},
		{
			"buffer":0,
			"byteLength":2656,
			"byteOffset":104560,
			"target":34962
		}
	],
	"samplers":[
		{
			"magFilter":9729,
			"minFilter":9987
		}
	],
	"buffers":[
		{
			"byteLength":107216,
			"uri":"ae86.bin"
		}
	]
}
