{
	"asset":{
		"generator":"Khronos glTF Blender I/O v4.3.47",
		"version":"2.0"
	},
	"scene":0,
	"scenes":[
		{
			"name":"Scene",
			"nodes":[
				6
			]
		}
	],
	"nodes":[
		{
			"mesh":0,
			"name":"Studio Floor",
			"scale":[
				0.009999999776482582,
				0.009999999776482582,
				0.009999999776482582
			],
			"translation":[
				0,
				0.009999999776482582,
				0
			]
		},
		{
			"mesh":1,
			"name":"Platform",
			"scale":[
				0.009999999776482582,
				0.009999999776482582,
				0.009999999776482582
			],
			"translation":[
				0,
				0.03999999910593033,
				0
			]
		},
		{
			"mesh":2,
			"name":"Fill Light",
			"rotation":[
				0,
				-0.4058533310890198,
				0,
				0.9139382243156433
			],
			"scale":[
				0.04034293070435524,
				0.04034293070435524,
				0.04034293070435524
			],
			"translation":[
				-1.4395184516906738,
				1.0883073806762695,
				-2.0260465145111084
			]
		},
		{
			"mesh":3,
			"name":"Back Light",
			"rotation":[
				0,
				-0.9219974875450134,
				0,
				0.387195885181427
			],
			"scale":[
				0.04034293070435524,
				0.04034293070435524,
				0.04034293070435524
			],
			"translation":[
				1.56620192527771,
				1.0883073806762695,
				-2.0260465145111084
			]
		},
		{
			"mesh":4,
			"name":"Cut Light",
			"rotation":[
				0,
				0.36658474802970886,
				0,
				0.9303846955299377
			],
			"scale":[
				0.04034293070435524,
				0.04034293070435524,
				0.04034293070435524
			],
			"translation":[
				-1.4395184516906738,
				1.0883073806762695,
				1.4958281517028809
			]
		},
		{
			"mesh": 5,
			"name": "Studio Walls",
			"scale": [
				3.0734341144561768,
				0.10000000149011612,
				3.034768581390381
			],
			"translation": [
				0,
				-0.10000000149011612,
				0
			]
		},
		{
			"children": [
				0,
				1,
				2,
				3,
				4,
				5
			],
			"name": "Studio Room"
		}
	],
	"materials":[
		{
			"doubleSided":true,
			"name":"Studio Floor",
			"pbrMetallicRoughness":{
				"baseColorTexture":{
					"index":0
				},
				"metallicFactor":0,
				"roughnessFactor":0.5
			}
		},
		{
			"doubleSided":true,
			"name":"Platform",
			"pbrMetallicRoughness":{
				"baseColorTexture":{
					"index":1
				},
				"metallicFactor":0,
				"roughnessFactor":0.5
			}
		},
		{
			"doubleSided":true,
			"name":"Light Stand",
			"pbrMetallicRoughness":{
				"baseColorTexture":{
					"index":2
				},
				"metallicFactor":0,
				"roughnessFactor":0.5
			}
		},
		{
			"doubleSided":true,
			"name":"Light",
			"pbrMetallicRoughness":{
				"baseColorTexture":{
					"index":3
				},
				"metallicFactor":0,
				"roughnessFactor":0.5
			}
		},
		{
			"doubleSided":true,
			"name":"Studio Room Walls",
			"pbrMetallicRoughness":{
				"baseColorTexture":{
					"index":4
				},
				"metallicFactor":0,
				"roughnessFactor":0.5
			}
		},
		{
			"doubleSided":true,
			"name":"Studio Room Floor",
			"pbrMetallicRoughness":{
				"baseColorTexture":{
					"index":5
				},
				"metallicFactor":0,
				"roughnessFactor":0.5
			}
		}
	],
	"meshes":[
		{
			"name":"Cube",
			"primitives":[
				{
					"attributes":{
						"POSITION":0,
						"NORMAL":1,
						"TEXCOORD_0":2
					},
					"indices":3,
					"material":0
				}
			]
		},
		{
			"name":"Cube.003",
			"primitives":[
				{
					"attributes":{
						"POSITION":4,
						"NORMAL":5,
						"TEXCOORD_0":6
					},
					"indices":7,
					"material":1
				}
			]
		},
		{
			"name":"Cube.001",
			"primitives":[
				{
					"attributes":{
						"POSITION":8,
						"NORMAL":9,
						"TEXCOORD_0":10
					},
					"indices":11,
					"material":2
				},
				{
					"attributes":{
						"POSITION":12,
						"NORMAL":13,
						"TEXCOORD_0":14
					},
					"indices":15,
					"material":3
				}
			]
		},
		{
			"name":"Cube.002",
			"primitives":[
				{
					"attributes":{
						"POSITION":16,
						"NORMAL":17,
						"TEXCOORD_0":18
					},
					"indices":11,
					"material":2
				},
				{
					"attributes":{
						"POSITION":19,
						"NORMAL":20,
						"TEXCOORD_0":21
					},
					"indices":15,
					"material":3
				}
			]
		},
		{
			"name":"Cube.005",
			"primitives":[
				{
					"attributes":{
						"POSITION":22,
						"NORMAL":23,
						"TEXCOORD_0":24
					},
					"indices":11,
					"material":2
				},
				{
					"attributes":{
						"POSITION":25,
						"NORMAL":26,
						"TEXCOORD_0":27
					},
					"indices":15,
					"material":3
				}
			]
		},
		{
			"name":"Cube.007",
			"primitives":[
				{
					"attributes":{
						"POSITION":28,
						"NORMAL":29,
						"TEXCOORD_0":30
					},
					"indices":31,
					"material":4
				},
				{
					"attributes":{
						"POSITION":32,
						"NORMAL":33,
						"TEXCOORD_0":34
					},
					"indices":35,
					"material":5
				}
			]
		}
	],
	"textures":[
		{
			"sampler":0,
			"source":0
		},
		{
			"sampler":0,
			"source":1
		},
		{
			"sampler":0,
			"source":2
		},
		{
			"sampler":0,
			"source":3
		},
		{
			"sampler":0,
			"source":4
		},
		{
			"sampler":0,
			"source":5
		}
	],
	"images":[
		{
			"mimeType":"image/jpeg",
			"name":"watercolor-paper-texture",
			"uri":"textures/watercolor-paper-texture.jpg"
		},
		{
			"mimeType":"image/jpeg",
			"name":"preview",
			"uri":"textures/preview.jpg"
		},
		{
			"mimeType":"image/jpeg",
			"name":"89255",
			"uri":"textures/89255.jpg"
		},
		{
			"mimeType":"image/jpeg",
			"name":"glass-texture-background-gray",
			"uri":"textures/glass-texture-background-gray.jpg"
		},
		{
			"mimeType":"image/jpeg",
			"name":"aged-concrete-wall",
			"uri":"textures/aged-concrete-wall.jpg"
		},
		{
			"mimeType":"image/jpeg",
			"name":"white-tiles-textures-background",
			"uri":"textures/white-tiles-textures-background.jpg"
		}
	],
	"accessors":[
		{
			"bufferView":0,
			"componentType":5126,
			"count":104,
			"max":[
				263.56884765625,
				562.0709228515625,
				250.44882202148438
			],
			"min":[
				-276.846435546875,
				-1,
				-283.8097229003906
			],
			"type":"VEC3"
		},
		{
			"bufferView":1,
			"componentType":5126,
			"count":104,
			"type":"VEC3"
		},
		{
			"bufferView":2,
			"componentType":5126,
			"count":104,
			"type":"VEC2"
		},
		{
			"bufferView":3,
			"componentType":5123,
			"count":156,
			"type":"SCALAR"
		},
		{
			"bufferView":4,
			"componentType":5126,
			"count":35,
			"max":[
				92.42453002929688,
				1.2959318161010742,
				91.81350708007812
			],
			"min":[
				-91.50169372558594,
				-1.2959318161010742,
				-92.34823608398438
			],
			"type":"VEC3"
		},
		{
			"bufferView":5,
			"componentType":5126,
			"count":35,
			"type":"VEC3"
		},
		{
			"bufferView":6,
			"componentType":5126,
			"count":35,
			"type":"VEC2"
		},
		{
			"bufferView":7,
			"componentType":5123,
			"count":90,
			"type":"SCALAR"
		},
		{
			"bufferView":8,
			"componentType":5126,
			"count":583,
			"max":[
				5.589691638946533,
				5.775683403015137,
				3.8911571502685547
			],
			"min":[
				-6.280399322509766,
				-26.85051918029785,
				-5.112480640411377
			],
			"type":"VEC3"
		},
		{
			"bufferView":9,
			"componentType":5126,
			"count":583,
			"type":"VEC3"
		},
		{
			"bufferView":10,
			"componentType":5126,
			"count":583,
			"type":"VEC2"
		},
		{
			"bufferView":11,
			"componentType":5123,
			"count":990,
			"type":"SCALAR"
		},
		{
			"bufferView":12,
			"componentType":5126,
			"count":4,
			"max":[
				5.589691638946533,
				5.775683403015137,
				2.2153196334838867
			],
			"min":[
				5.589691638946533,
				-5.775665283203125,
				-2.2153196334838867
			],
			"type":"VEC3"
		},
		{
			"bufferView":13,
			"componentType":5126,
			"count":4,
			"type":"VEC3"
		},
		{
			"bufferView":14,
			"componentType":5126,
			"count":4,
			"type":"VEC2"
		},
		{
			"bufferView":15,
			"componentType":5123,
			"count":6,
			"type":"SCALAR"
		},
		{
			"bufferView":16,
			"componentType":5126,
			"count":583,
			"max":[
				5.589691638946533,
				5.775683403015137,
				3.8911571502685547
			],
			"min":[
				-6.280399322509766,
				-26.85051918029785,
				-5.112480640411377
			],
			"type":"VEC3"
		},
		{
			"bufferView":17,
			"componentType":5126,
			"count":583,
			"type":"VEC3"
		},
		{
			"bufferView":18,
			"componentType":5126,
			"count":583,
			"type":"VEC2"
		},
		{
			"bufferView":19,
			"componentType":5126,
			"count":4,
			"max":[
				5.589691638946533,
				5.775683403015137,
				2.2153196334838867
			],
			"min":[
				5.589691638946533,
				-5.775665283203125,
				-2.2153196334838867
			],
			"type":"VEC3"
		},
		{
			"bufferView":20,
			"componentType":5126,
			"count":4,
			"type":"VEC3"
		},
		{
			"bufferView":21,
			"componentType":5126,
			"count":4,
			"type":"VEC2"
		},
		{
			"bufferView":22,
			"componentType":5126,
			"count":583,
			"max":[
				5.589691638946533,
				5.775683403015137,
				3.8911571502685547
			],
			"min":[
				-6.280399322509766,
				-26.85051918029785,
				-5.112480640411377
			],
			"type":"VEC3"
		},
		{
			"bufferView":23,
			"componentType":5126,
			"count":583,
			"type":"VEC3"
		},
		{
			"bufferView":24,
			"componentType":5126,
			"count":583,
			"type":"VEC2"
		},
		{
			"bufferView":25,
			"componentType":5126,
			"count":4,
			"max":[
				5.589691638946533,
				5.775683403015137,
				2.2153196334838867
			],
			"min":[
				5.589691638946533,
				-5.775665283203125,
				-2.2153196334838867
			],
			"type":"VEC3"
		},
		{
			"bufferView":26,
			"componentType":5126,
			"count":4,
			"type":"VEC3"
		},
		{
			"bufferView":27,
			"componentType":5126,
			"count":4,
			"type":"VEC2"
		},
		{
			"bufferView":28,
			"componentType":5126,
			"count":234,
			"max":[
				1.0807913541793823,
				62.94850158691406,
				1.0741548538208008
			],
			"min":[
				-1.0711032152175903,
				-1,
				-1.1123428344726562
			],
			"type":"VEC3"
		},
		{
			"bufferView":29,
			"componentType":5126,
			"count":234,
			"type":"VEC3"
		},
		{
			"bufferView":30,
			"componentType":5126,
			"count":234,
			"type":"VEC2"
		},
		{
			"bufferView":31,
			"componentType":5123,
			"count":432,
			"type":"SCALAR"
		},
		{
			"bufferView":32,
			"componentType":5126,
			"count":56,
			"max":[
				1.0807913541793823,
				60.620174407958984,
				1.0741548538208008
			],
			"min":[
				-1.0001286268234253,
				-1,
				-1.1117342710494995
			],
			"type":"VEC3"
		},
		{
			"bufferView":33,
			"componentType":5126,
			"count":56,
			"type":"VEC3"
		},
		{
			"bufferView":34,
			"componentType":5126,
			"count":56,
			"type":"VEC2"
		},
		{
			"bufferView":35,
			"componentType":5123,
			"count":108,
			"type":"SCALAR"
		}
	],
	"bufferViews":[
		{
			"buffer":0,
			"byteLength":1248,
			"byteOffset":0,
			"target":34962
		},
		{
			"buffer":0,
			"byteLength":1248,
			"byteOffset":1248,
			"target":34962
		},
		{
			"buffer":0,
			"byteLength":832,
			"byteOffset":2496,
			"target":34962
		},
		{
			"buffer":0,
			"byteLength":312,
			"byteOffset":3328,
			"target":34963
		},
		{
			"buffer":0,
			"byteLength":420,
			"byteOffset":3640,
			"target":34962
		},
		{
			"buffer":0,
			"byteLength":420,
			"byteOffset":4060,
			"target":34962
		},
		{
			"buffer":0,
			"byteLength":280,
			"byteOffset":4480,
			"target":34962
		},
		{
			"buffer":0,
			"byteLength":180,
			"byteOffset":4760,
			"target":34963
		},
		{
			"buffer":0,
			"byteLength":6996,
			"byteOffset":4940,
			"target":34962
		},
		{
			"buffer":0,
			"byteLength":6996,
			"byteOffset":11936,
			"target":34962
		},
		{
			"buffer":0,
			"byteLength":4664,
			"byteOffset":18932,
			"target":34962
		},
		{
			"buffer":0,
			"byteLength":1980,
			"byteOffset":23596,
			"target":34963
		},
		{
			"buffer":0,
			"byteLength":48,
			"byteOffset":25576,
			"target":34962
		},
		{
			"buffer":0,
			"byteLength":48,
			"byteOffset":25624,
			"target":34962
		},
		{
			"buffer":0,
			"byteLength":32,
			"byteOffset":25672,
			"target":34962
		},
		{
			"buffer":0,
			"byteLength":12,
			"byteOffset":25704,
			"target":34963
		},
		{
			"buffer":0,
			"byteLength":6996,
			"byteOffset":25716,
			"target":34962
		},
		{
			"buffer":0,
			"byteLength":6996,
			"byteOffset":32712,
			"target":34962
		},
		{
			"buffer":0,
			"byteLength":4664,
			"byteOffset":39708,
			"target":34962
		},
		{
			"buffer":0,
			"byteLength":48,
			"byteOffset":44372,
			"target":34962
		},
		{
			"buffer":0,
			"byteLength":48,
			"byteOffset":44420,
			"target":34962
		},
		{
			"buffer":0,
			"byteLength":32,
			"byteOffset":44468,
			"target":34962
		},
		{
			"buffer":0,
			"byteLength":6996,
			"byteOffset":44500,
			"target":34962
		},
		{
			"buffer":0,
			"byteLength":6996,
			"byteOffset":51496,
			"target":34962
		},
		{
			"buffer":0,
			"byteLength":4664,
			"byteOffset":58492,
			"target":34962
		},
		{
			"buffer":0,
			"byteLength":48,
			"byteOffset":63156,
			"target":34962
		},
		{
			"buffer":0,
			"byteLength":48,
			"byteOffset":63204,
			"target":34962
		},
		{
			"buffer":0,
			"byteLength":32,
			"byteOffset":63252,
			"target":34962
		},
		{
			"buffer":0,
			"byteLength":2808,
			"byteOffset":63284,
			"target":34962
		},
		{
			"buffer":0,
			"byteLength":2808,
			"byteOffset":66092,
			"target":34962
		},
		{
			"buffer":0,
			"byteLength":1872,
			"byteOffset":68900,
			"target":34962
		},
		{
			"buffer":0,
			"byteLength":864,
			"byteOffset":70772,
			"target":34963
		},
		{
			"buffer":0,
			"byteLength":672,
			"byteOffset":71636,
			"target":34962
		},
		{
			"buffer":0,
			"byteLength":672,
			"byteOffset":72308,
			"target":34962
		},
		{
			"buffer":0,
			"byteLength":448,
			"byteOffset":72980,
			"target":34962
		},
		{
			"buffer":0,
			"byteLength":216,
			"byteOffset":73428,
			"target":34963
		}
	],
	"samplers":[
		{
			"magFilter":9729,
			"minFilter":9987
		}
	],
	"buffers":[
		{
			"byteLength":73644,
			"uri":"Room.bin"
		}
	]
}
