{
	"asset":{
		"generator":"Khronos glTF Blender I/O v4.3.47",
		"version":"2.0"
	},
	"scene":0,
	"scenes":[
		{
			"name":"Scene",
			"nodes":[
				0,
				1,
				2
			]
		}
	],
	"nodes":[
		{
			"mesh":0,
			"name":"Studio Floor",
			"scale":[
				0.009999999776482582,
				0.009999999776482582,
				0.009999999776482582
			],
			"translation":[
				0,
				0.009999999776482582,
				0
			]
		},
		{
			"mesh":1,
			"name":"Platform",
			"scale":[
				0.009999999776482582,
				0.009999999776482582,
				0.009999999776482582
			],
			"translation":[
				0,
				0.03999999910593033,
				0
			]
		},
		{
			"mesh":2,
			"name":"Studio Room",
			"scale":[
				3,
				3,
				3
			],
			"translation":[
				0,
				3,
				0
			]
		}
	],
	"materials":[
		{
			"doubleSided":true,
			"name":"Studio Floor",
			"pbrMetallicRoughness":{
				"baseColorTexture":{
					"index":0
				},
				"metallicFactor":0,
				"roughnessFactor":0.5
			}
		},
		{
			"doubleSided":true,
			"name":"Platform"
		},
		{
			"doubleSided":true,
			"name":"Studio Room Walls",
			"pbrMetallicRoughness":{
				"baseColorTexture":{
					"index":1
				},
				"metallicFactor":0,
				"roughnessFactor":0.5
			}
		},
		{
			"doubleSided":true,
			"name":"Studio Room Floor",
			"pbrMetallicRoughness":{
				"baseColorTexture":{
					"index":2
				},
				"metallicFactor":0,
				"roughnessFactor":0.5
			}
		}
	],
	"meshes":[
		{
			"name":"Cube",
			"primitives":[
				{
					"attributes":{
						"POSITION":0,
						"NORMAL":1,
						"TEXCOORD_0":2
					},
					"indices":3,
					"material":0
				}
			]
		},
		{
			"name":"Cube.003",
			"primitives":[
				{
					"attributes":{
						"POSITION":4,
						"NORMAL":5,
						"TEXCOORD_0":6
					},
					"indices":7,
					"material":1
				}
			]
		},
		{
			"name":"Cube.004",
			"primitives":[
				{
					"attributes":{
						"POSITION":8,
						"NORMAL":9,
						"TEXCOORD_0":10
					},
					"indices":11,
					"material":2
				},
				{
					"attributes":{
						"POSITION":12,
						"NORMAL":13,
						"TEXCOORD_0":14
					},
					"indices":15,
					"material":3
				}
			]
		}
	],
	"textures":[
		{
			"sampler":0,
			"source":0
		},
		{
			"sampler":0,
			"source":1
		},
		{
			"sampler":0,
			"source":2
		}
	],
	"images":[
		{
			"mimeType":"image/jpeg",
			"name":"watercolor-paper-texture",
			"uri":"watercolor-paper-texture.jpg"
		},
		{
			"mimeType":"image/jpeg",
			"name":"aged-concrete-wall",
			"uri":"aged-concrete-wall.jpg"
		},
		{
			"mimeType":"image/jpeg",
			"name":"white-tiles-textures-background",
			"uri":"white-tiles-textures-background.jpg"
		}
	],
	"accessors":[
		{
			"bufferView":0,
			"componentType":5126,
			"count":98,
			"max":[
				263.56884765625,
				562.0709228515625,
				250.44882202148438
			],
			"min":[
				-276.846435546875,
				-1,
				-283.8097229003906
			],
			"type":"VEC3"
		},
		{
			"bufferView":1,
			"componentType":5126,
			"count":98,
			"type":"VEC3"
		},
		{
			"bufferView":2,
			"componentType":5126,
			"count":98,
			"type":"VEC2"
		},
		{
			"bufferView":3,
			"componentType":5123,
			"count":156,
			"type":"SCALAR"
		},
		{
			"bufferView":4,
			"componentType":5126,
			"count":35,
			"max":[
				92.42453002929688,
				1.2959318161010742,
				91.81350708007812
			],
			"min":[
				-91.50169372558594,
				-1.2959318161010742,
				-92.34823608398438
			],
			"type":"VEC3"
		},
		{
			"bufferView":5,
			"componentType":5126,
			"count":35,
			"type":"VEC3"
		},
		{
			"bufferView":6,
			"componentType":5126,
			"count":35,
			"type":"VEC2"
		},
		{
			"bufferView":7,
			"componentType":5123,
			"count":90,
			"type":"SCALAR"
		},
		{
			"bufferView":8,
			"componentType":5126,
			"count":20,
			"max":[
				1,
				1,
				1
			],
			"min":[
				-1,
				-1,
				-1
			],
			"type":"VEC3"
		},
		{
			"bufferView":9,
			"componentType":5126,
			"count":20,
			"type":"VEC3"
		},
		{
			"bufferView":10,
			"componentType":5126,
			"count":20,
			"type":"VEC2"
		},
		{
			"bufferView":11,
			"componentType":5123,
			"count":30,
			"type":"SCALAR"
		},
		{
			"bufferView":12,
			"componentType":5126,
			"count":4,
			"max":[
				1,
				-1,
				1
			],
			"min":[
				-1,
				-1,
				-1
			],
			"type":"VEC3"
		},
		{
			"bufferView":13,
			"componentType":5126,
			"count":4,
			"type":"VEC3"
		},
		{
			"bufferView":14,
			"componentType":5126,
			"count":4,
			"type":"VEC2"
		},
		{
			"bufferView":15,
			"componentType":5123,
			"count":6,
			"type":"SCALAR"
		}
	],
	"bufferViews":[
		{
			"buffer":0,
			"byteLength":1176,
			"byteOffset":0,
			"target":34962
		},
		{
			"buffer":0,
			"byteLength":1176,
			"byteOffset":1176,
			"target":34962
		},
		{
			"buffer":0,
			"byteLength":784,
			"byteOffset":2352,
			"target":34962
		},
		{
			"buffer":0,
			"byteLength":312,
			"byteOffset":3136,
			"target":34963
		},
		{
			"buffer":0,
			"byteLength":420,
			"byteOffset":3448,
			"target":34962
		},
		{
			"buffer":0,
			"byteLength":420,
			"byteOffset":3868,
			"target":34962
		},
		{
			"buffer":0,
			"byteLength":280,
			"byteOffset":4288,
			"target":34962
		},
		{
			"buffer":0,
			"byteLength":180,
			"byteOffset":4568,
			"target":34963
		},
		{
			"buffer":0,
			"byteLength":240,
			"byteOffset":4748,
			"target":34962
		},
		{
			"buffer":0,
			"byteLength":240,
			"byteOffset":4988,
			"target":34962
		},
		{
			"buffer":0,
			"byteLength":160,
			"byteOffset":5228,
			"target":34962
		},
		{
			"buffer":0,
			"byteLength":60,
			"byteOffset":5388,
			"target":34963
		},
		{
			"buffer":0,
			"byteLength":48,
			"byteOffset":5448,
			"target":34962
		},
		{
			"buffer":0,
			"byteLength":48,
			"byteOffset":5496,
			"target":34962
		},
		{
			"buffer":0,
			"byteLength":32,
			"byteOffset":5544,
			"target":34962
		},
		{
			"buffer":0,
			"byteLength":12,
			"byteOffset":5576,
			"target":34963
		}
	],
	"samplers":[
		{
			"magFilter":9729,
			"minFilter":9987
		}
	],
	"buffers":[
		{
			"byteLength":5588,
			"uri":"Room.bin"
		}
	]
}
