{
	"asset":{
		"generator":"Khronos glTF Blender I/O v4.0.44",
		"version":"2.0"
	},
	"extensionsUsed":[
		"KHR_materials_specular"
	],
	"scene":0,
	"scenes":[
		{
			"name":"Scene",
			"nodes":[
				5
			]
		}
	],
	"nodes":[
		{
			"mesh":0,
			"name":"WheelFL",
			"translation":[
				0.00046316778752952814,
				-0.10823958367109299,
				0.3036186695098877
			]
		},
		{
			"mesh":1,
			"name":"WheelFR",
			"translation":[
				0.00046316778752952814,
				-0.10823958367109299,
				0.3036186695098877
			]
		},
		{
			"mesh":2,
			"name":"WheelRL",
			"translation":[
				0.0004634234355762601,
				-0.1082395687699318,
				-0.5886247158050537
			]
		},
		{
			"mesh":3,
			"name":"WheelRR",
			"translation":[
				0.0004634234355762601,
				-0.1082395687699318,
				-0.5886247158050537
			]
		},
		{
			"children":[
				0,
				1,
				2,
				3
			],
			"mesh":4,
			"name":"Body",
			"translation":[
				0.00021824859140906483,
				0.21919678151607513,
				0.19317808747291565
			]
		},
		{
			"children":[
				4
			],
			"name":"Test Car"
		}
	],
	"materials":[
		{
			"doubleSided":true,
			"emissiveFactor":[
				1,
				1,
				1
			],
			"emissiveTexture":{
				"index":0
			},
			"extensions":{
				"KHR_materials_specular":{
					"specularFactor":0
				}
			},
			"name":"Material.002",
			"pbrMetallicRoughness":{
				"baseColorTexture":{
					"index":1
				},
				"metallicFactor":0
			}
		}
	],
	"meshes":[
		{
			"name":"Cylinder.001",
			"primitives":[
				{
					"attributes":{
						"POSITION":0,
						"NORMAL":1,
						"TEXCOORD_0":2
					},
					"indices":3,
					"material":0
				}
			]
		},
		{
			"name":"Cylinder.003",
			"primitives":[
				{
					"attributes":{
						"POSITION":4,
						"NORMAL":5,
						"TEXCOORD_0":6
					},
					"indices":7,
					"material":0
				}
			]
		},
		{
			"name":"Cylinder.002",
			"primitives":[
				{
					"attributes":{
						"POSITION":8,
						"NORMAL":9,
						"TEXCOORD_0":10
					},
					"indices":11,
					"material":0
				}
			]
		},
		{
			"name":"Cylinder.004",
			"primitives":[
				{
					"attributes":{
						"POSITION":12,
						"NORMAL":13,
						"TEXCOORD_0":14
					},
					"indices":7,
					"material":0
				}
			]
		},
		{
			"name":"Cube.004",
			"primitives":[
				{
					"attributes":{
						"POSITION":15,
						"NORMAL":16,
						"TEXCOORD_0":17
					},
					"indices":18,
					"material":0
				}
			]
		}
	],
	"textures":[
		{
			"sampler":0,
			"source":0
		},
		{
			"sampler":0,
			"source":0
		}
	],
	"images":[
		{
			"mimeType":"image/png",
			"name":"fmesh_Material_001_BasssseColor_001df",
			"uri":"fmesh_Material_001_BasssseColor_001df.png"
		}
	],
	"accessors":[
		{
			"bufferView":0,
			"componentType":5126,
			"count":756,
			"max":[
				0.3193908631801605,
				0.10923772305250168,
				0.10923770070075989
			],
			"min":[
				0.22813399136066437,
				-0.10923759639263153,
				-0.10923758149147034
			],
			"type":"VEC3"
		},
		{
			"bufferView":1,
			"componentType":5126,
			"count":756,
			"type":"VEC3"
		},
		{
			"bufferView":2,
			"componentType":5126,
			"count":756,
			"type":"VEC2"
		},
		{
			"bufferView":3,
			"componentType":5123,
			"count":756,
			"type":"SCALAR"
		},
		{
			"bufferView":4,
			"componentType":5126,
			"count":166,
			"max":[
				-0.22813381254673004,
				0.10923763364553452,
				0.10923764109611511
			],
			"min":[
				-0.31939080357551575,
				-0.10923769325017929,
				-0.10923770070075989
			],
			"type":"VEC3"
		},
		{
			"bufferView":5,
			"componentType":5126,
			"count":166,
			"type":"VEC3"
		},
		{
			"bufferView":6,
			"componentType":5126,
			"count":166,
			"type":"VEC2"
		},
		{
			"bufferView":7,
			"componentType":5123,
			"count":756,
			"type":"SCALAR"
		},
		{
			"bufferView":8,
			"componentType":5126,
			"count":166,
			"max":[
				0.3193906247615814,
				0.10923769325017929,
				0.10923773050308228
			],
			"min":[
				0.22813373804092407,
				-0.10923761129379272,
				-0.10923755168914795
			],
			"type":"VEC3"
		},
		{
			"bufferView":9,
			"componentType":5126,
			"count":166,
			"type":"VEC3"
		},
		{
			"bufferView":10,
			"componentType":5126,
			"count":166,
			"type":"VEC2"
		},
		{
			"bufferView":11,
			"componentType":5123,
			"count":756,
			"type":"SCALAR"
		},
		{
			"bufferView":12,
			"componentType":5126,
			"count":166,
			"max":[
				-0.22813370823860168,
				0.10923764854669571,
				0.10923764109611511
			],
			"min":[
				-0.3193906843662262,
				-0.1092376783490181,
				-0.1092376708984375
			],
			"type":"VEC3"
		},
		{
			"bufferView":13,
			"componentType":5126,
			"count":166,
			"type":"VEC3"
		},
		{
			"bufferView":14,
			"componentType":5126,
			"count":166,
			"type":"VEC2"
		},
		{
			"bufferView":15,
			"componentType":5126,
			"count":2173,
			"max":[
				0.34721657633781433,
				0.2579929828643799,
				0.60715651512146
			],
			"min":[
				-0.34628987312316895,
				-0.14129775762557983,
				-0.955305814743042
			],
			"type":"VEC3"
		},
		{
			"bufferView":16,
			"componentType":5126,
			"count":2173,
			"type":"VEC3"
		},
		{
			"bufferView":17,
			"componentType":5126,
			"count":2173,
			"type":"VEC2"
		},
		{
			"bufferView":18,
			"componentType":5123,
			"count":8751,
			"type":"SCALAR"
		}
	],
	"bufferViews":[
		{
			"buffer":0,
			"byteLength":9072,
			"byteOffset":0,
			"target":34962
		},
		{
			"buffer":0,
			"byteLength":9072,
			"byteOffset":9072,
			"target":34962
		},
		{
			"buffer":0,
			"byteLength":6048,
			"byteOffset":18144,
			"target":34962
		},
		{
			"buffer":0,
			"byteLength":1512,
			"byteOffset":24192,
			"target":34963
		},
		{
			"buffer":0,
			"byteLength":1992,
			"byteOffset":25704,
			"target":34962
		},
		{
			"buffer":0,
			"byteLength":1992,
			"byteOffset":27696,
			"target":34962
		},
		{
			"buffer":0,
			"byteLength":1328,
			"byteOffset":29688,
			"target":34962
		},
		{
			"buffer":0,
			"byteLength":1512,
			"byteOffset":31016,
			"target":34963
		},
		{
			"buffer":0,
			"byteLength":1992,
			"byteOffset":32528,
			"target":34962
		},
		{
			"buffer":0,
			"byteLength":1992,
			"byteOffset":34520,
			"target":34962
		},
		{
			"buffer":0,
			"byteLength":1328,
			"byteOffset":36512,
			"target":34962
		},
		{
			"buffer":0,
			"byteLength":1512,
			"byteOffset":37840,
			"target":34963
		},
		{
			"buffer":0,
			"byteLength":1992,
			"byteOffset":39352,
			"target":34962
		},
		{
			"buffer":0,
			"byteLength":1992,
			"byteOffset":41344,
			"target":34962
		},
		{
			"buffer":0,
			"byteLength":1328,
			"byteOffset":43336,
			"target":34962
		},
		{
			"buffer":0,
			"byteLength":26076,
			"byteOffset":44664,
			"target":34962
		},
		{
			"buffer":0,
			"byteLength":26076,
			"byteOffset":70740,
			"target":34962
		},
		{
			"buffer":0,
			"byteLength":17384,
			"byteOffset":96816,
			"target":34962
		},
		{
			"buffer":0,
			"byteLength":17502,
			"byteOffset":114200,
			"target":34963
		}
	],
	"samplers":[
		{
			"magFilter":9729,
			"minFilter":9987
		}
	],
	"buffers":[
		{
			"byteLength":131704,
			"uri":"ae86.bin"
		}
	]
}
