{
	"asset":{
		"generator":"Khronos glTF Blender I/O v4.2.60",
		"version":"2.0"
	},
	"scene":0,
	"scenes":[
		{
			"name":"Scene",
			"nodes":[
				0
			]
		}
	],
	"nodes":[
		{
			"mesh": 0,
			"name": "MrDirk"
		}
	],
	"materials":[
		{
			"doubleSided":true,
			"name":"Material_0",
			"pbrMetallicRoughness":{
				"baseColorTexture":{
					"index":0
				},
				"metallicFactor":0,
				"roughnessFactor":0.800000011920929
			}
		}
	],
	"meshes":[
		{
			"name":"MrDirk",
			"primitives":[
				{
					"attributes":{
						"POSITION":0,
						"NORMAL":1,
						"TEXCOORD_0":2
					},
					"indices":3,
					"material":0
				}
			]
		}
	],
	"textures":[
		{
			"sampler":0,
			"source":0
		}
	],
	"images":[
		{
			"mimeType":"image/jpeg",
			"name":"Image_0",
			"uri":"textures/Image_0.jpg"
		}
	],
	"accessors":[
		{
			"bufferView":0,
			"componentType":5126,
			"count":437911,
			"max":[
				0.6520100235939026,
				0.9965479969978333,
				0.6509749889373779
			],
			"min":[
				-0.6519299745559692,
				-0.9998540282249451,
				-0.665116012096405
			],
			"type":"VEC3"
		},
		{
			"bufferView":1,
			"componentType":5126,
			"count":437911,
			"type":"VEC3"
		},
		{
			"bufferView":2,
			"componentType":5126,
			"count":437911,
			"type":"VEC2"
		},
		{
			"bufferView":3,
			"componentType":5125,
			"count":1650240,
			"type":"SCALAR"
		}
	],
	"bufferViews":[
		{
			"buffer":0,
			"byteLength":5254932,
			"byteOffset":0,
			"target":34962
		},
		{
			"buffer":0,
			"byteLength":5254932,
			"byteOffset":5254932,
			"target":34962
		},
		{
			"buffer":0,
			"byteLength":3503288,
			"byteOffset":10509864,
			"target":34962
		},
		{
			"buffer":0,
			"byteLength":6600960,
			"byteOffset":14013152,
			"target":34963
		}
	],
	"samplers":[
		{
			"magFilter":9729,
			"minFilter":9987
		}
	],
	"buffers":[
		{
			"byteLength":20614112,
			"uri":"TestFace.bin"
		}
	]
}
