{
	"asset":{
		"generator":"Khronos glTF Blender I/O v4.2.60",
		"version":"2.0"
	},
	"extensionsUsed":[
		"KHR_materials_specular"
	],
	"scene":0,
	"scenes":[
		{
			"name":"Scene",
			"nodes":[
				3
			]
		}
	],
	"nodes":[
		{
			"mesh":0,
			"name":"FrontWheels_RB",
			"translation":[
				0.00046316778752952814,
				-0.10823958367109299,
				0.3036186695098877
			]
		},
		{
			"mesh": 1,
			"name": "RearWheels_RB",
			"translation": [
				0.0004634234355762601,
				-0.1082395687699318,
				-0.5886247158050537
			]
		},
		{
			"children": [
				0,
				1
			],
			"mesh": 2,
			"name": "Body_RB",
			"translation": [
				0.00021824859140906483,
				0.21919678151607513,
				0.19317808747291565
			]
		},
		{
			"children": [
				2
			],
			"name": "Test Car"
		}
	],
	"materials":[
		{
			"doubleSided":true,
			"emissiveFactor":[
				1,
				1,
				1
			],
			"emissiveTexture":{
				"index":0
			},
			"extensions":{
				"KHR_materials_specular":{
					"specularFactor":0
				}
			},
			"name":"Material.002",
			"pbrMetallicRoughness":{
				"baseColorTexture":{
					"index":1
				},
				"metallicFactor":0
			}
		}
	],
	"meshes":[
		{
			"name":"Cylinder.003",
			"primitives":[
				{
					"attributes":{
						"POSITION":0,
						"NORMAL":1,
						"TEXCOORD_0":2
					},
					"indices":3,
					"material":0
				}
			]
		},
		{
			"name":"Cylinder.004",
			"primitives":[
				{
					"attributes":{
						"POSITION":4,
						"NORMAL":5,
						"TEXCOORD_0":6
					},
					"indices":3,
					"material":0
				}
			]
		},
		{
			"name":"Cube.004",
			"primitives":[
				{
					"attributes":{
						"POSITION":7,
						"NORMAL":8,
						"TEXCOORD_0":9
					},
					"indices":10,
					"material":0
				}
			]
		}
	],
	"textures":[
		{
			"sampler":0,
			"source":0
		},
		{
			"sampler":0,
			"source":0
		}
	],
	"images":[
		{
			"mimeType":"image/png",
			"name":"fmesh_Material.001_BasssseColor_001df",
			"uri":"textures/fmesh_Material_001_BasssseColor_001df.png"
		}
	],
	"accessors":[
		{
			"bufferView":0,
			"componentType":5126,
			"count":332,
			"max":[
				0.3193908631801605,
				0.10923772305250168,
				0.10923770070075989
			],
			"min":[
				-0.31939080357551575,
				-0.10923769325017929,
				-0.10923770070075989
			],
			"type":"VEC3"
		},
		{
			"bufferView":1,
			"componentType":5126,
			"count":332,
			"type":"VEC3"
		},
		{
			"bufferView":2,
			"componentType":5126,
			"count":332,
			"type":"VEC2"
		},
		{
			"bufferView":3,
			"componentType":5123,
			"count":1512,
			"type":"SCALAR"
		},
		{
			"bufferView":4,
			"componentType":5126,
			"count":332,
			"max":[
				0.3193906247615814,
				0.10923769325017929,
				0.10923773050308228
			],
			"min":[
				-0.3193906843662262,
				-0.1092376783490181,
				-0.1092376708984375
			],
			"type":"VEC3"
		},
		{
			"bufferView":5,
			"componentType":5126,
			"count":332,
			"type":"VEC3"
		},
		{
			"bufferView":6,
			"componentType":5126,
			"count":332,
			"type":"VEC2"
		},
		{
			"bufferView":7,
			"componentType":5126,
			"count":2048,
			"max":[
				0.34721657633781433,
				0.2579929828643799,
				0.60715651512146
			],
			"min":[
				-0.34628987312316895,
				-0.14129775762557983,
				-0.955305814743042
			],
			"type":"VEC3"
		},
		{
			"bufferView":8,
			"componentType":5126,
			"count":2048,
			"type":"VEC3"
		},
		{
			"bufferView":9,
			"componentType":5126,
			"count":2048,
			"type":"VEC2"
		},
		{
			"bufferView":10,
			"componentType":5123,
			"count":8751,
			"type":"SCALAR"
		}
	],
	"bufferViews":[
		{
			"buffer":0,
			"byteLength":3984,
			"byteOffset":0,
			"target":34962
		},
		{
			"buffer":0,
			"byteLength":3984,
			"byteOffset":3984,
			"target":34962
		},
		{
			"buffer":0,
			"byteLength":2656,
			"byteOffset":7968,
			"target":34962
		},
		{
			"buffer":0,
			"byteLength":3024,
			"byteOffset":10624,
			"target":34963
		},
		{
			"buffer":0,
			"byteLength":3984,
			"byteOffset":13648,
			"target":34962
		},
		{
			"buffer":0,
			"byteLength":3984,
			"byteOffset":17632,
			"target":34962
		},
		{
			"buffer":0,
			"byteLength":2656,
			"byteOffset":21616,
			"target":34962
		},
		{
			"buffer":0,
			"byteLength":24576,
			"byteOffset":24272,
			"target":34962
		},
		{
			"buffer":0,
			"byteLength":24576,
			"byteOffset":48848,
			"target":34962
		},
		{
			"buffer":0,
			"byteLength":16384,
			"byteOffset":73424,
			"target":34962
		},
		{
			"buffer":0,
			"byteLength":17502,
			"byteOffset":89808,
			"target":34963
		}
	],
	"samplers":[
		{
			"magFilter":9729,
			"minFilter":9987
		}
	],
	"buffers":[
		{
			"byteLength":107312,
			"uri":"ae86.bin"
		}
	]
}
